# xmcd
#
# Track frame offsets: 
#        150
#        14351
#        31210
#        51722
#        65340
#        86762
#        101299
#        132830
#        146347
#        180344
#
# Disc length: 2606 seconds
#
# Revision: 0
# Processed by: cddbd v1.5.2PL0 Copyright (c) Steve Scherf et al.
# Submitted via: ExactAudioCopy v1.0b1
#
DISCID=7f0a2c0a
DTITLE=Clarence ''Gatemouth'' Brown - Flippin' Out
DYEAR=2009
DGENRE=Electric Blues - Texas Blues
TTITLE0=Flippin' Out
TTITLE1=Next Time You See Me
TTITLE2=Catfish
TTITLE3=Strollin' With Bones
TTITLE4=I Wonder
TTITLE5=Alligator Boogaloo
TTITLE6=Please Send Me Someone to Love
TTITLE7=Baby Take It Easy
TTITLE8=What a Shame, What a Shame
TTITLE9=Ain't That Dandy
EXTD=
EXTT0=
EXTT1=
EXTT2=
EXTT3=
EXTT4=
EXTT5=
EXTT6=
EXTT7=
EXTT8=
EXTT9=
PLAYORDER=
